<?xml version="1.0" encoding="UTF-8"?>
<svg id="Layer_2" data-name="Layer 2" xmlns="http://www.w3.org/2000/svg" viewBox="0 0 352.14 52.75">
  <g id="Layer_1-2" data-name="Layer 1">
    <g>
      <g style="opacity: .2;">
        <path d="M159.45,25.05c1.25-.16,3.77-.83,5.17,1.52.37.46,1.23,2.41,1.23,3.82s-.26,2.84-.78,4.34c-.52,1.51-1.22,3-2.12,4.47s-2.02,2.94-3.37,4.41c-1.35,1.47-2.71,2.71-4.1,3.71l.2.12c2.77,1.74,5.57,2.61,8.4,2.61,2.18,0,4.03-.42,5.57-1.26,1.54-.84,3.66-1.62,5.24-3.63h0c-3.24,4.92-7.45,7.38-12.65,7.38-3.48,0-6.87-.99-10.16-2.98-.08.03-.12.06-.12.08l-.33.16c-3.78,1.96-7.79,2.94-12.03,2.94-3.35,0-6.32-.6-8.91-1.79-2.6-1.2-4.6-2.9-6-5.1-1.4-2.2-2.1-4.76-2.1-7.67,0-6.61,4.38-12.4,13.14-17.38l.29-.16v-.24c0-2.94.45-5.81,1.35-8.63.9-2.82,2.08-5.12,3.55-6.91,2.67-3.24,5.59-4.85,8.77-4.85,1.71,0,3.11.5,4.18,1.49,1.07.99,1.61,2.22,1.61,3.69,0,3.29-2.46,6.51-7.38,9.67-.82.54-2.34,1.44-4.57,2.69-2.42,1.33-4.01,2.19-4.77,2.57.11,2.45.74,5.25,1.9,8.4,1.16,3.16,2.56,5.94,4.22,8.36,2.53,3.7,5.71,6.95,9.55,9.75,1.9-1.36,3.6-2.94,5.1-4.75,1.5-1.81,2.67-3.67,3.53-5.59.86-1.92,1.29-3.72,1.29-5.4s-.46-3.15-1.37-4.22c-.91-1.07-2.09-1.61-3.53-1.61M150.85,48.79c-4.16-2.72-7.56-6.45-10.2-11.2-2.64-4.75-4.16-9.91-4.57-15.48l-.04-.2c-6.09,3.89-9.14,8.62-9.14,14.2,0,4.16,1.45,7.62,4.36,10.38,2.91,2.76,6.55,4.14,10.93,4.14,3.02,0,5.9-.61,8.65-1.84ZM138.77,18.97c3.89-2.07,6.83-3.88,8.81-5.43,1.5-1.11,2.69-2.43,3.59-3.94.9-1.51,1.35-2.94,1.35-4.3,0-1.17-.36-2.08-1.08-2.73-.72-.65-1.68-.98-2.88-.98-1.74,0-3.37.71-4.87,2.14-1.51,1.43-2.71,3.35-3.61,5.75-.9,2.41-1.35,4.98-1.35,7.73v1.06l.04.69Z"/>
      </g>
      <g>
        <g>
          <path d="M.23,43.19l-.23-6.37h.28c1.63,5.53,5.16,7.95,8.93,7.95s7.77-2.65,7.77-7.44c0-4.46-3.35-6.33-7.44-8.42l-2.28-1.16c-3.49-1.77-6.6-3.91-6.6-8.51,0-5.02,3.86-8.79,9.12-8.79,2.56,0,5.81.88,8.05,2.19v4.84h-.28c-1.49-4.56-4.56-6.37-7.86-6.37-4.09,0-6.93,2.79-6.93,6.93s3.21,5.91,5.86,7.26l2.28,1.16c4.09,2.09,8.19,4.28,8.19,9.67s-4.14,9.3-10.23,9.3c-2.7,0-6.51-.88-8.6-2.23Z"/>
          <path d="M47.76,44.59v.28h-8.93v-.28c2.6-.19,3.4-1.44,2.28-4.7l-2.51-7.35h-11.72l-1.4,4.05c-1.86,5.49-2.42,7.81,1.21,8v.28h-7.49v-.28c2.23-.19,3.44-2.65,5.4-8.28l8.84-25.67h.37l9.72,28.28c1.4,4,2.23,5.49,4.23,5.67ZM38.18,31.42l-5.49-16.05-5.44,16.05h10.93Z"/>
          <path d="M73.95,44.59v.28c-.47.09-1.86.19-2.98.19-2.6,0-3.44-1.95-9.3-13.86-.93-1.86-2.14-2.14-3.63-2.14h-3.16v10.33c0,3.44.05,5.21,3.21,5.21v.28h-9.16v-.28c3.16,0,3.35-1.77,3.35-5.21v-22.88c0-3.44-.19-5.21-3.35-5.21v-.28h10.14c6.79,0,11.07,3.63,11.07,9.02,0,4.7-3.81,7.53-7.67,8.6v.09c1.3.88,2.42,2.93,3.39,4.79,4.33,8.37,5.3,10.14,8.09,11.07ZM58.78,28.31c5.77,0,8.46-3.07,8.46-8.09s-2.6-8.46-8.42-8.46h-2.19c-1.12,0-1.77.56-1.77,1.67v14.88h3.91Z"/>
          <path d="M101.62,44.59v.28h-8.93v-.28c2.6-.19,3.4-1.44,2.28-4.7l-2.51-7.35h-11.72l-1.4,4.05c-1.86,5.49-2.42,7.81,1.21,8v.28h-7.49v-.28c2.23-.19,3.44-2.65,5.4-8.28l8.84-25.67h.37l9.72,28.28c1.4,4,2.23,5.49,4.23,5.67ZM92.04,31.42l-5.49-16.05-5.44,16.05h10.93Z"/>
          <path d="M127.34,16.49v22.88c0,3.44.19,5.21,3.35,5.21v.28h-9.3v-.28c3.16,0,3.35-1.77,3.35-5.21v-11.63h-16v11.63c0,3.44.19,5.21,3.35,5.21v.28h-9.3v-.28c3.16,0,3.35-1.77,3.35-5.21v-22.88c0-3.44-.19-5.21-3.35-5.21v-.28h9.3v.28c-3.16,0-3.35,1.77-3.35,5.21v10.42h16v-10.42c0-3.44-.19-5.21-3.35-5.21v-.28h9.3v.28c-3.16,0-3.35,1.77-3.35,5.21Z"/>
        </g>
        <g>
          <path d="M149,43.19l-.23-6.37h.28c1.63,5.53,5.16,7.95,8.93,7.95s7.77-2.65,7.77-7.44c0-4.47-3.35-6.33-7.44-8.42l-2.28-1.16c-3.49-1.77-6.6-3.91-6.6-8.51,0-5.02,3.86-8.79,9.12-8.79,2.56,0,5.81.88,8.05,2.19v4.84h-.28c-1.49-4.56-4.56-6.37-7.86-6.37-4.09,0-6.93,2.79-6.93,6.93s3.21,5.91,5.86,7.26l2.28,1.16c4.09,2.09,8.19,4.28,8.19,9.67s-4.14,9.3-10.23,9.3c-2.7,0-6.51-.88-8.6-2.23Z"/>
          <path d="M194.9,16.49v22.88c0,3.44.19,5.21,3.35,5.21v.28h-9.3v-.28c3.16,0,3.35-1.77,3.35-5.21v-11.63h-16v11.63c0,3.44.19,5.21,3.35,5.21v.28h-9.3v-.28c3.16,0,3.35-1.77,3.35-5.21v-22.88c0-3.44-.19-5.21-3.35-5.21v-.28h9.3v.28c-3.16,0-3.35,1.77-3.35,5.21v10.42h16v-10.42c0-3.44-.19-5.21-3.35-5.21v-.28h9.3v.28c-3.16,0-3.35,1.77-3.35,5.21Z"/>
          <path d="M224.81,37.56l-1.02,7.3h-22.93v-.28c3.16,0,3.35-1.77,3.35-5.21v-22.88c0-3.44-.19-5.21-3.35-5.21v-.28h22.23l.56,6.46h-.28c-2.14-5.12-3.35-5.72-8.37-5.72h-8.19v15.12h6.51c4,0,4.7-1.02,5.35-4.46h.28v10h-.28c-.65-3.16-1.35-4.79-5.35-4.79h-6.51v14.28c0,1.49.47,2.23,1.86,2.23h7.07c5.02,0,6.28-.6,8.79-6.56h.28Z"/>
          <path d="M236.29,44.59v.28h-9.3v-.28c3.16,0,3.35-1.77,3.35-5.21v-22.88c0-3.44-.19-5.21-3.35-5.21v-.28h9.3v.28c-3.16,0-3.35,1.77-3.35,5.21v22.88c0,3.44.19,5.21,3.35,5.21ZM253.69,44.59v.28c-1.58.19-2.05.19-3.02.19-3.16,0-5.67-3.44-16.19-16.93l9.35-10.42c2.19-2.47,3.26-3.72,3.26-4.84,0-1.21-.98-1.49-2.19-1.58v-.28h7.95v.28c-1.12.19-3.49,1.58-8.33,6.98l-7.72,8.6c8.84,10.84,14.05,17.16,16.88,17.72Z"/>
          <path d="M254.61,44.59c3.16,0,3.35-1.77,3.35-5.21v-22.88c0-3.44-.19-5.21-3.35-5.21v-.28h9.3v.28c-3.16,0-3.35,1.77-3.35,5.21v22.88c0,3.44.19,5.21,3.35,5.21v.28h-9.3v-.28Z"/>
          <path d="M294.75,11.01v.28c-3.07,0-3.53,2.79-3.53,7.63v26.32h-.28l-19.91-31.35v24.14c0,3.86.47,6.56,3.95,6.56v.28h-8.88v-.28c3.35,0,4.09-2.7,4.09-6.56v-22c0-3.02-.93-4.37-4.09-4.74v-.28h6.19l18.09,28.46v-20.56c0-4.84-.65-7.63-4.19-7.63v-.28h8.56Z"/>
          <path d="M323.07,44.59v.28h-8.93v-.28c2.6-.19,3.4-1.44,2.28-4.7l-2.51-7.35h-11.72l-1.4,4.05c-1.86,5.49-2.42,7.81,1.21,8v.28h-7.49v-.28c2.23-.19,3.44-2.65,5.4-8.28l8.84-25.67h.37l9.72,28.28c1.4,4,2.23,5.49,4.23,5.67ZM313.49,31.42l-5.49-16.05-5.44,16.05h10.93Z"/>
          <path d="M348.79,16.49v22.88c0,3.44.19,5.21,3.35,5.21v.28h-9.3v-.28c3.16,0,3.35-1.77,3.35-5.21v-11.63h-16v11.63c0,3.44.19,5.21,3.35,5.21v.28h-9.3v-.28c3.16,0,3.35-1.77,3.35-5.21v-22.88c0-3.44-.19-5.21-3.35-5.21v-.28h9.3v.28c-3.16,0-3.35,1.77-3.35,5.21v10.42h16v-10.42c0-3.44-.19-5.21-3.35-5.21v-.28h9.3v.28c-3.16,0-3.35,1.77-3.35,5.21Z"/>
        </g>
      </g>
    </g>
  </g>
</svg>